<svg xmlns="http://www.w3.org/2000/svg" viewBox="0 0 96 96">
  <rect width="96" height="96" rx="22" fill="#16281f"/>
  <!-- 山海徽记（5a · 手绘笔意） -->
  <g fill="#f2ede4" transform="translate(14,30.8) scale(0.2595) translate(-34,-52)">
    <path d="M34,104 C86,74 138,52 182,54 C224,56 268,78 292,98 C270,86 226,66 182,64 C140,66 92,86 40,110 Z"/>
    <path d="M46,140 C110,128 150,150 210,138 C250,131 280,140 296,146 C280,150 250,142 210,150 C150,162 110,140 46,150 Z"/>
    <path d="M70,168 C130,160 180,176 250,166 C230,172 180,184 130,176 C110,173 90,175 70,176 Z"/>
  </g>
</svg>
